<svg width="48" height="48" viewBox="0 0 48 48" fill="none" xmlns="http://www.w3.org/2000/svg">
<path d="M23.9999 0.230042C19.2888 0.230042 14.6834 1.62706 10.7662 4.24444C6.84908 6.86181 3.79601 10.582 1.99313 14.9345C0.190253 19.2871 -0.281463 24.0765 0.637637 28.6971C1.55674 33.3177 3.82537 37.562 7.15666 40.8933C10.4879 44.2246 14.7322 46.4933 19.3529 47.4124C23.9735 48.3315 28.7629 47.8597 33.1154 46.0569C37.468 44.254 41.1881 41.2009 43.8055 37.2837C46.4229 33.3666 47.8199 28.7612 47.8199 24.0501C47.8136 17.7345 45.3019 11.6795 40.8362 7.21378C36.3704 2.74804 30.3154 0.236395 23.9999 0.230042ZM23.9999 44.8701C19.8821 44.8701 15.8568 43.649 12.4329 41.3613C9.00914 39.0735 6.34059 35.8219 4.76477 32.0175C3.18896 28.2132 2.77665 24.027 3.57999 19.9883C4.38334 15.9496 6.36625 12.2398 9.27798 9.32808C12.1897 6.41635 15.8994 4.43344 19.9381 3.63009C23.9768 2.82675 28.163 3.23906 31.9674 4.81487C35.7717 6.39069 39.0234 9.05924 41.3111 12.4831C43.5988 15.9069 44.8199 19.9322 44.8199 24.0501C44.8136 29.5699 42.618 34.8619 38.7149 38.765C34.8117 42.6681 29.5198 44.8637 23.9999 44.8701Z" fill="black"/>
<path d="M33.876 14.9781C32.124 15.2541 30.372 15.4461 28.608 15.5781C29.2919 14.6405 29.6616 13.5106 29.664 12.3501C29.6989 11.5979 29.581 10.8465 29.3172 10.1412C29.0534 9.43597 28.6494 8.79154 28.1295 8.2469C27.6096 7.70227 26.9846 7.26874 26.2923 6.97254C25.6001 6.67634 24.8549 6.52362 24.102 6.52362C23.349 6.52362 22.6039 6.67634 21.9116 6.97254C21.2194 7.26874 20.5944 7.70227 20.0745 8.2469C19.5546 8.79154 19.1505 9.43597 18.8867 10.1412C18.623 10.8465 18.505 11.5979 18.54 12.3501C18.5423 13.5106 18.912 14.6405 19.596 15.5781C17.832 15.4461 16.068 15.2541 14.316 14.9781C13.595 14.8379 12.8484 14.9217 12.1764 15.2181C11.5044 15.5145 10.9391 16.0094 10.5564 16.6363C10.1737 17.2632 9.99198 17.9921 10.0355 18.7253C10.079 19.4585 10.3458 20.1608 10.8 20.738C11.0814 21.1306 11.4388 21.4625 11.8512 21.714C12.2635 21.9655 12.7222 22.1315 13.2 22.202C15.204 22.526 17.28 22.7541 19.392 22.8981V24.7581L13.2 34.4901C12.94 34.8958 12.7624 35.3489 12.6775 35.8233C12.5925 36.2977 12.6019 36.7841 12.7049 37.2549C12.9131 38.2057 13.4905 39.0349 14.31 39.56C15.1295 40.0852 16.1241 40.2632 17.0749 40.0551C17.5457 39.952 17.9915 39.7572 18.387 39.4818C18.7826 39.2064 19.12 38.8558 19.38 38.45L24 31.106L28.644 38.45C28.9018 38.859 29.2381 39.2128 29.6334 39.4911C30.0288 39.7694 30.4753 39.9665 30.9473 40.0713C31.4193 40.176 31.9073 40.1861 32.3832 40.1012C32.8592 40.0162 33.3135 39.8378 33.7201 39.5763C34.1267 39.3147 34.4775 38.9752 34.7521 38.5774C35.0267 38.1795 35.2198 37.7312 35.3202 37.2583C35.4207 36.7853 35.4264 36.2972 35.3371 35.8221C35.2478 35.347 35.0652 34.8942 34.8 34.4901L28.8 25.046V22.8501C30.912 22.7061 32.988 22.4781 34.992 22.1541C35.9468 21.9949 36.7992 21.463 37.3618 20.6754C37.9244 19.8877 38.1511 18.9088 37.992 17.9541C37.8328 16.9993 37.3009 16.1468 36.5133 15.5842C35.7256 15.0216 34.7468 14.7949 33.792 14.9541L33.876 14.9781ZM24.096 9.78204C24.6067 9.76772 25.1101 9.90606 25.5418 10.1794C25.9734 10.4527 26.3138 10.8486 26.5192 11.3164C26.7247 11.7842 26.7859 12.3027 26.6951 12.8054C26.6043 13.3082 26.3656 13.7725 26.0095 14.1389C25.6533 14.5053 25.196 14.7571 24.696 14.8622C24.196 14.9672 23.676 14.9207 23.2026 14.7287C22.7291 14.5366 22.3238 14.2077 22.0383 13.784C21.7528 13.3602 21.6002 12.861 21.6 12.3501C21.5997 11.6813 21.8604 11.0388 22.3265 10.5592C22.7926 10.0796 23.4275 9.80079 24.096 9.78204ZM34.56 19.2501C32.1431 19.6292 29.7076 19.8776 27.264 19.9941C26.8788 20.0126 26.5155 20.1787 26.2496 20.4581C25.9836 20.7374 25.8355 21.1084 25.836 21.4941V25.4901C25.8379 25.7754 25.9211 26.0543 26.076 26.2941L32.292 36.05C32.3386 36.1233 32.3703 36.205 32.3852 36.2905C32.4002 36.376 32.3981 36.4637 32.3792 36.5484C32.3602 36.6331 32.3248 36.7132 32.2748 36.7842C32.2248 36.8552 32.1613 36.9156 32.088 36.962C31.9392 37.053 31.7609 37.0826 31.5907 37.0445C31.4205 37.0065 31.2718 36.9037 31.176 36.758L25.272 27.446C25.1435 27.2413 24.9671 27.0709 24.758 26.9497C24.549 26.8284 24.3135 26.7599 24.072 26.75C23.8186 26.7502 23.5694 26.814 23.3471 26.9356C23.1248 27.0572 22.9367 27.2328 22.8 27.446L16.8 36.806C16.759 36.8895 16.7008 36.9633 16.6293 37.0227C16.5577 37.0821 16.4744 37.1257 16.3849 37.1507C16.2953 37.1757 16.2015 37.1814 16.1096 37.1676C16.0176 37.1538 15.9296 37.1207 15.8514 37.0705C15.7731 37.0203 15.7063 36.9541 15.6554 36.8764C15.6045 36.7986 15.5706 36.7109 15.5559 36.6191C15.5412 36.5273 15.5461 36.4334 15.5703 36.3436C15.5944 36.2538 15.6372 36.1701 15.696 36.0981L22.092 26.006C22.2487 25.7672 22.3321 25.4877 22.332 25.202V21.4821C22.3324 21.0964 22.1843 20.7254 21.9184 20.4461C21.6525 20.1667 21.2892 20.0006 20.904 19.9821C18.4726 19.8689 16.049 19.6245 13.644 19.2501C13.5577 19.238 13.4749 19.2083 13.4006 19.1629C13.3263 19.1175 13.2621 19.0573 13.212 18.9861C13.1316 18.8818 13.0849 18.7556 13.078 18.6242C13.0711 18.4928 13.1044 18.3624 13.1734 18.2503C13.2425 18.1383 13.344 18.0499 13.4645 17.997C13.585 17.9441 13.7188 17.9291 13.848 17.9541C20.6373 19.0341 27.5547 19.0341 34.344 17.9541C34.5167 17.9291 34.6925 17.9711 34.8352 18.0715C34.978 18.1719 35.077 18.323 35.112 18.4941C35.1363 18.6671 35.0923 18.8428 34.9893 18.984C34.8862 19.1251 34.7322 19.2205 34.56 19.2501Z" fill="black"/>
</svg>
