<svg width="48" height="48" viewBox="0 0 48 48" fill="none" xmlns="http://www.w3.org/2000/svg">
<path d="M41.9999 9.12208H35.7719C35.8296 8.16476 35.7117 7.20494 35.4239 6.29008C35.0166 4.99804 34.2693 3.83939 33.2599 2.93572C32.2507 2.03204 31.0169 1.41665 29.6879 1.15408C28.577 0.926192 27.4292 0.948368 26.3279 1.219C25.2264 1.48964 24.199 2.00195 23.3202 2.7188C22.4415 3.43565 21.7332 4.33907 21.2468 5.36357C20.7603 6.38807 20.5078 7.50797 20.5078 8.64208C20.5078 8.79808 20.5078 8.96608 20.5078 9.12208H14.2919C12.9403 9.12526 11.6449 9.66359 10.6891 10.6193C9.7334 11.5751 9.19505 12.8705 9.19188 14.2221V19.778C8.14037 19.6945 7.08294 19.8295 6.08614 20.1746C5.08935 20.5196 4.17475 21.0673 3.3999 21.7831C2.62506 22.4987 2.00673 23.3671 1.58383 24.3335C1.16094 25.2998 0.942627 26.3432 0.942627 27.398C0.942627 28.4528 1.16094 29.4964 1.58383 30.4627C2.00673 31.429 2.62506 32.2974 3.3999 33.0132C4.17475 33.7288 5.08935 34.2765 6.08614 34.6216C7.08294 34.9666 8.14037 35.1016 9.19188 35.018V41.93C9.19505 43.2817 9.7334 44.5771 10.6891 45.5329C11.6449 46.4885 12.9403 47.0269 14.2919 47.03H41.9999C43.3515 47.0269 44.6469 46.4885 45.6025 45.5329C46.5583 44.5771 47.0967 43.2817 47.0999 41.93V14.2221C47.0967 12.8705 46.5583 11.5751 45.6025 10.6193C44.6469 9.66359 43.3515 9.12526 41.9999 9.12208ZM44.0999 41.93C44.0967 42.4861 43.8744 43.0184 43.4812 43.4116C43.0882 43.8046 42.5559 44.0269 41.9999 44.03H14.2919C13.7359 44.0269 13.2036 43.8046 12.8104 43.4116C12.4173 43.0184 12.195 42.4861 12.1919 41.93V33.146C12.1854 32.9093 12.1234 32.6773 12.0109 32.4689C11.8983 32.2604 11.7383 32.0813 11.5439 31.946C11.2919 31.7764 10.9956 31.6846 10.6919 31.682C10.5119 31.6858 10.3336 31.7182 10.1639 31.778C9.3831 32.0704 8.53803 32.1472 7.71736 32.0002C6.8967 31.8533 6.13071 31.4883 5.49979 30.9433C4.86888 30.3984 4.39631 29.6935 4.13169 28.9029C3.86708 28.1124 3.82015 27.265 3.99588 26.45C4.13481 25.7969 4.41296 25.1815 4.81137 24.6455C5.20977 24.1096 5.71905 23.666 6.30449 23.3447C6.88994 23.0236 7.53776 22.8323 8.20379 22.7843C8.8698 22.7362 9.53836 22.8323 10.1639 23.066C10.3918 23.1488 10.6364 23.1755 10.8768 23.144C11.1173 23.1124 11.3466 23.0234 11.5455 22.8845C11.7443 22.7458 11.9069 22.5611 12.0194 22.3462C12.1319 22.1314 12.191 21.8926 12.1919 21.65V14.2221C12.1919 13.6651 12.4131 13.131 12.807 12.7372C13.2008 12.3433 13.7349 12.1221 14.2919 12.1221H22.3319C22.5705 12.124 22.8061 12.0684 23.0188 11.9601C23.2315 11.8517 23.4151 11.6939 23.5539 11.4997C23.6928 11.3056 23.7829 11.0809 23.8167 10.8446C23.8504 10.6083 23.8267 10.3673 23.7478 10.1421C23.5912 9.65738 23.5102 9.15145 23.5078 8.64208C23.5066 7.96712 23.6525 7.29998 23.9352 6.68714C24.2181 6.07429 24.6311 5.53046 25.1456 5.09351C25.6601 4.65658 26.2635 4.33702 26.914 4.15712C27.5646 3.97721 28.2465 3.94127 28.9124 4.05181C29.5782 4.16234 30.212 4.41668 30.7695 4.79713C31.3271 5.17759 31.7949 5.67499 32.1406 6.25472C32.4862 6.83444 32.7015 7.48255 32.7711 8.15392C32.8407 8.82527 32.7631 9.50374 32.5438 10.1421C32.4649 10.3673 32.4414 10.6083 32.4752 10.8446C32.5089 11.0809 32.599 11.3056 32.7378 11.4997C32.8767 11.6939 33.0602 11.8517 33.2729 11.9601C33.4856 12.0684 33.7212 12.124 33.9599 12.1221H41.9999C42.5568 12.1221 43.091 12.3433 43.4849 12.7372C43.8786 13.131 44.0999 13.6651 44.0999 14.2221V41.93Z" fill="#1D1C1D"/>
<path d="M35.9998 25.8622H29.9998V20.4502C29.9998 20.0524 29.8417 19.6708 29.5604 19.3895C29.2792 19.1083 28.8976 18.9502 28.4998 18.9502C28.102 18.9502 27.7204 19.1083 27.4391 19.3895C27.1579 19.6708 26.9998 20.0524 26.9998 20.4502V25.8622H21.5998C21.2267 25.8956 20.8796 26.0675 20.6267 26.344C20.374 26.6204 20.2339 26.9815 20.2339 27.3562C20.2339 27.7307 20.374 28.0919 20.6267 28.3684C20.8796 28.6448 21.2267 28.8167 21.5998 28.8502H27.0118V34.8502C27.0452 35.2232 27.2171 35.5703 27.4936 35.8232C27.77 36.076 28.1312 36.2161 28.5058 36.2161C28.8803 36.2161 29.2415 36.076 29.518 35.8232C29.7944 35.5703 29.9663 35.2232 29.9998 34.8502V28.8502H35.9998C36.3976 28.8502 36.7792 28.6921 37.0604 28.4108C37.3417 28.1296 37.4998 27.748 37.4998 27.3502C37.4998 26.9524 37.3417 26.5708 37.0604 26.2895C36.7792 26.0083 36.3976 25.8502 35.9998 25.8502V25.8622Z" fill="#1D1C1D"/>
</svg>
