<svg width="40" height="40" viewBox="0 0 40 40" fill="none" xmlns="http://www.w3.org/2000/svg">
<path fill-rule="evenodd" clip-rule="evenodd" d="M7.186 0.0499878C8.1091 0.0499878 8.8574 0.798308 8.8574 1.72142V5.06428H12.2C13.1231 5.06428 13.8714 5.8126 13.8714 6.7357C13.8714 7.6588 13.1231 8.4071 12.2 8.4071H8.8574V11.75C8.8574 12.6731 8.1091 13.4214 7.186 13.4214C6.2629 13.4214 5.51456 12.6731 5.51456 11.75V8.4071H2.17143C1.24832 8.4071 0.5 7.6588 0.5 6.7357C0.5 5.8126 1.24832 5.06428 2.17143 5.06428H5.51456V1.72142C5.51456 0.798308 6.2629 0.0499878 7.186 0.0499878ZM18.886 1.16428C17.9629 1.16428 17.2146 1.9126 17.2146 2.83571C17.2146 3.75881 17.9629 4.50714 18.886 4.50714H31.1431C33.9124 4.50714 36.1574 6.7521 36.1574 9.5214V21.7786H25.5714C23.7252 21.7786 22.2286 23.2752 22.2286 25.1214V35.7071H9.9717C7.2024 35.7071 4.95742 33.4622 4.95742 30.6929V18.4357C4.95742 17.5126 4.20909 16.7643 3.28599 16.7643C2.36288 16.7643 1.61456 17.5126 1.61456 18.4357V30.6929C1.61456 35.3084 5.35618 39.05 9.9717 39.05H22.7536C24.379 39.05 25.9378 38.4043 27.0871 37.255L37.7053 26.6369C38.8546 25.4875 39.5003 23.9287 39.5003 22.3033V9.5214C39.5003 4.9059 35.7587 1.16428 31.1431 1.16428H18.886ZM25.5714 34.0432L34.4932 25.1214H25.5714V34.0432Z" fill="#1D1C1D"/>
</svg>
