<svg width="48" height="48" viewBox="0 0 48 48" fill="none" xmlns="http://www.w3.org/2000/svg">
<path d="M42.0001 0.950148H6.00021C5.32889 0.94857 4.66383 1.07924 4.04301 1.33468C3.42219 1.59013 2.85776 1.96535 2.38196 2.43893C1.90614 2.91251 1.52828 3.47516 1.26992 4.09478C1.01156 4.7144 0.877778 5.37883 0.876203 6.05015V42.0501C0.869835 42.7259 0.997847 43.3962 1.2528 44.0222C1.50776 44.648 1.88456 45.2171 2.36132 45.696C2.83808 46.175 3.40529 46.5545 4.02998 46.8123C4.65467 47.0702 5.32439 47.2013 6.00021 47.1981H42.0001C42.676 47.2013 43.3458 47.0702 43.9704 46.8123C44.5952 46.5545 45.1623 46.175 45.6391 45.696C46.1158 45.2171 46.4927 44.648 46.7477 44.0222C47.0025 43.3962 47.1306 42.7259 47.1241 42.0501V6.05015C47.1226 5.37883 46.9888 4.7144 46.7305 4.09478C46.4721 3.47516 46.0943 2.91251 45.6185 2.43893C45.1427 1.96535 44.5782 1.59013 43.9573 1.33468C43.3365 1.07924 42.6715 0.94857 42.0001 0.950148ZM44.1241 42.0501C44.1306 42.332 44.0803 42.6122 43.9761 42.8741C43.872 43.1361 43.7161 43.3743 43.518 43.5749C43.3198 43.7753 43.0833 43.9338 42.8224 44.0409C42.5617 44.1479 42.282 44.2014 42.0001 44.1981H6.00021C5.71833 44.2014 5.43867 44.1479 5.17791 44.0409C4.91715 43.9338 4.68062 43.7753 4.48241 43.5749C4.2842 43.3743 4.12838 43.1361 4.02423 42.8741C3.92009 42.6122 3.86975 42.332 3.87621 42.0501V6.05015C3.87618 5.77234 3.93129 5.4973 4.03832 5.24093C4.14536 4.98457 4.30218 4.75199 4.49975 4.55668C4.6973 4.36135 4.93164 4.20718 5.18919 4.10306C5.44676 3.99895 5.72241 3.94697 6.00021 3.95015H42.0001C42.2779 3.94697 42.5537 3.99895 42.8112 4.10306C43.0688 4.20718 43.3031 4.36135 43.5006 4.55668C43.6982 4.75199 43.855 4.98457 43.9621 5.24093C44.0691 5.4973 44.1241 5.77234 44.1241 6.05015V42.0501Z" fill="#1D1C1D"/>
<path d="M34.884 16.646H31.2L31.716 13.1659C31.7444 12.9705 31.7339 12.7714 31.6854 12.58C31.6368 12.3887 31.551 12.2087 31.4328 12.0505C31.1943 11.7309 30.8387 11.5192 30.444 11.4619C30.0494 11.4046 29.6481 11.5065 29.3285 11.745C29.009 11.9836 28.7972 12.3393 28.74 12.7339L28.164 16.646H22.476L22.98 13.1659C23.0207 12.966 23.0201 12.7598 22.9784 12.5601C22.9365 12.3604 22.8545 12.1713 22.7372 12.0044C22.6199 11.8374 22.4697 11.6962 22.2959 11.5893C22.122 11.4824 21.9282 11.4121 21.7263 11.3827C21.5244 11.3533 21.3186 11.3653 21.1217 11.4182C20.9246 11.471 20.7404 11.5635 20.5802 11.69C20.4201 11.8165 20.2875 11.9743 20.1905 12.1538C20.0934 12.3333 20.034 12.5307 20.016 12.7339L19.44 16.646H14.5439C14.1461 16.646 13.7646 16.8039 13.4833 17.0852C13.202 17.3666 13.0439 17.748 13.0439 18.146C13.0439 18.5438 13.202 18.9252 13.4833 19.2066C13.7646 19.4879 14.1461 19.646 14.5439 19.646H19.008L17.928 27.038H13.1279C12.7301 27.038 12.3486 27.1959 12.0673 27.4772C11.786 27.7586 11.6279 28.14 11.6279 28.538C11.6279 28.9358 11.786 29.3172 12.0673 29.5986C12.3486 29.8799 12.7301 30.038 13.1279 30.038H17.496L16.8 34.982C16.7402 35.3661 16.8318 35.7585 17.0556 36.0764C17.2796 36.3942 17.6181 36.6128 18 36.686H18.228C18.587 36.6839 18.9333 36.5532 19.2041 36.3176C19.475 36.0821 19.6523 35.7572 19.704 35.402L20.52 30.05H26.184L25.464 34.994C25.4055 35.3868 25.5053 35.787 25.7415 36.1065C25.9778 36.426 26.331 36.6387 26.724 36.698H26.952C27.311 36.6959 27.6573 36.5652 27.9281 36.3296C28.199 36.0941 28.3763 35.7692 28.428 35.414L29.22 30.05H33.456C33.8538 30.05 34.2353 29.8919 34.5167 29.6106C34.7979 29.3292 34.956 28.9478 34.956 28.55C34.956 28.152 34.7979 27.7706 34.5167 27.4892C34.2353 27.2079 33.8538 27.05 33.456 27.05H29.652L30.744 19.658H34.884C35.2818 19.658 35.6633 19.4999 35.9447 19.2186C36.2259 18.9372 36.384 18.5558 36.384 18.158C36.384 17.76 36.2259 17.3786 35.9447 17.0972C35.6633 16.8159 35.2818 16.658 34.884 16.658V16.646ZM26.628 27.038H20.952L22.032 19.646H27.708L26.628 27.038Z" fill="#1D1C1D"/>
</svg>
