<svg width="48" height="32" viewBox="0 0 48 32" fill="none" xmlns="http://www.w3.org/2000/svg">
<path d="M45.3842 1.8499C44.8686 1.55638 44.2854 1.40203 43.6922 1.40203C43.0989 1.40203 42.5157 1.55638 42.0002 1.8499L34.8002 6.0499V5.1379C34.8002 3.78531 34.2629 2.48809 33.3065 1.53166C32.3499 0.575233 31.0527 0.0379028 29.7002 0.0379028H6.00015C4.64754 0.0379028 3.35034 0.575233 2.39389 1.53166C1.43747 2.48809 0.900146 3.78531 0.900146 5.1379V26.3898C0.900146 27.0596 1.03206 27.7229 1.28836 28.3416C1.54465 28.9604 1.92033 29.5226 2.39389 29.9961C2.86747 30.4697 3.4297 30.8454 4.04846 31.1016C4.66722 31.358 5.3304 31.4898 6.00015 31.4898H29.6762C30.3479 31.4931 31.0137 31.3635 31.6352 31.1085C32.2568 30.8537 32.8218 30.4785 33.2979 30.0047C33.774 29.5308 34.1519 28.9674 34.4097 28.3472C34.6674 27.7268 34.8002 27.0617 34.8002 26.3898V25.4778L42.0002 29.6298C42.5219 29.9309 43.1139 30.0882 43.7162 30.0858C44.3148 30.0896 44.9034 29.9321 45.4202 29.6298C45.944 29.3331 46.3791 28.902 46.6808 28.3811C46.9824 27.86 47.1396 27.2679 47.1362 26.6658V4.8619C47.1447 4.24816 46.9863 3.64365 46.6776 3.11308C46.3691 2.5825 45.9219 2.14587 45.3842 1.8499ZM31.7762 7.72984V26.3898C31.7762 26.9468 31.5549 27.4809 31.161 27.8748C30.7673 28.2686 30.2331 28.4898 29.6762 28.4898H6.00015C5.44318 28.4898 4.90905 28.2686 4.51522 27.8748C4.1214 27.4809 3.90015 26.9468 3.90015 26.3898V5.1379C3.90331 4.58304 4.12596 4.05198 4.51945 3.66073C4.91293 3.2695 5.44527 3.0499 6.00015 3.0499H29.6762C30.2331 3.0499 30.7673 3.27115 31.161 3.66498C31.5549 4.0588 31.7762 4.59295 31.7762 5.1499V7.72984ZM44.1002 26.6658C44.1015 26.7401 44.082 26.8133 44.0438 26.8769C44.0057 26.9405 43.9503 26.9922 43.8842 27.0258C43.8224 27.0681 43.7492 27.0908 43.6742 27.0908C43.5992 27.0908 43.526 27.0681 43.4642 27.0258L34.8002 22.0098V9.51784L43.4882 4.5019C43.55 4.4596 43.6232 4.43697 43.6982 4.43697C43.7732 4.43697 43.8464 4.4596 43.9082 4.5019C43.9743 4.53564 44.0297 4.58728 44.0678 4.65093C44.106 4.71459 44.1255 4.78768 44.1242 4.8619L44.1002 26.6658Z" fill="#1D1C1D"/>
<path d="M25.6081 15.302C25.242 15.1745 24.8404 15.1962 24.4902 15.3623C24.1398 15.5285 23.869 15.8258 23.7361 16.19C23.2956 17.3882 22.4996 18.423 21.4545 19.1562C20.4096 19.8894 19.1655 20.2857 17.889 20.2923C16.6125 20.2988 15.3644 19.9152 14.3119 19.1927C13.2595 18.4703 12.4529 17.4435 12.0001 16.25C11.8474 15.9131 11.5738 15.6458 11.2334 15.501C10.893 15.3563 10.5106 15.3447 10.1621 15.4685C9.81347 15.5922 9.52404 15.8423 9.35109 16.1693C9.17814 16.4963 9.13427 16.8762 9.22814 17.234C9.86816 19.0191 11.044 20.5631 12.5948 21.6545C14.1456 22.746 15.9957 23.3318 17.8921 23.3318C19.7886 23.3318 21.6387 22.746 23.1895 21.6545C24.7402 20.5631 25.9161 19.0191 26.5561 17.234C26.6292 17.0454 26.6623 16.8438 26.6535 16.6419C26.6448 16.4399 26.5943 16.2419 26.5053 16.0604C26.4162 15.8789 26.2905 15.7178 26.1362 15.5873C25.9817 15.4568 25.8019 15.3596 25.6081 15.302Z" fill="#1D1C1D"/>
<path d="M14.844 14.438C15.1924 14.4402 15.5337 14.3394 15.8247 14.148C16.1158 13.9568 16.3438 13.6835 16.4799 13.3628C16.6159 13.0421 16.6539 12.6882 16.5891 12.3459C16.5243 12.0036 16.3596 11.6882 16.1158 11.4393C15.8719 11.1905 15.5599 11.0195 15.2191 10.9478C14.8782 10.8761 14.5237 10.9068 14.2003 11.0363C13.8769 11.1657 13.599 11.3882 13.4018 11.6753C13.2046 11.9625 13.0968 12.3015 13.092 12.65C13.0873 12.8831 13.129 13.1147 13.2149 13.3314C13.3008 13.5482 13.4291 13.7456 13.5923 13.9121C13.7555 14.0786 13.9502 14.2109 14.1652 14.3012C14.3801 14.3915 14.6109 14.438 14.844 14.438Z" fill="#1D1C1D"/>
<path d="M20.5558 14.438C20.9041 14.4402 21.2454 14.3394 21.5365 14.148C21.8277 13.9568 22.0555 13.6835 22.1916 13.3628C22.3276 13.0421 22.3657 12.6882 22.3009 12.3459C22.2361 12.0036 22.0714 11.6882 21.8277 11.4393C21.5838 11.1905 21.2718 11.0195 20.9308 10.9478C20.59 10.8761 20.2354 10.9068 19.912 11.0363C19.5886 11.1657 19.3108 11.3882 19.1136 11.6753C18.9163 11.9625 18.8086 12.3015 18.8038 12.65C18.799 12.8831 18.8407 13.1147 18.9267 13.3314C19.0126 13.5482 19.1409 13.7456 19.3041 13.9121C19.4673 14.0786 19.662 14.2109 19.8769 14.3012C20.0919 14.3915 20.3227 14.438 20.5558 14.438Z" fill="#1D1C1D"/>
</svg>
