<svg width="40" height="48" viewBox="0 0 40 48" fill="none" xmlns="http://www.w3.org/2000/svg">
<path d="M34.3997 4.64599H21.1157L22.2557 3.44599C22.5104 3.1595 22.6457 2.78638 22.634 2.40325C22.6222 2.0201 22.4642 1.65602 22.1923 1.38574C21.9205 1.11546 21.5555 0.959499 21.1724 0.949875C20.7892 0.940251 20.4169 1.0777 20.1317 1.33399L16.5317 4.93399C16.3921 5.07332 16.2812 5.23885 16.2056 5.42108C16.13 5.60332 16.091 5.79869 16.091 5.99599C16.091 6.1933 16.13 6.38866 16.2056 6.57089C16.2812 6.75313 16.3921 6.91865 16.5317 7.05799L20.1317 10.658C20.2715 10.799 20.4379 10.9108 20.6213 10.9871C20.8046 11.0633 21.0013 11.1023 21.1997 11.102C21.3967 11.1035 21.5918 11.0649 21.7735 10.9885C21.955 10.9122 22.1191 10.7997 22.2557 10.658C22.3951 10.5197 22.5056 10.3552 22.5811 10.1739C22.6565 9.99269 22.6954 9.79831 22.6954 9.60199C22.6954 9.40567 22.6565 9.2113 22.5811 9.03005C22.5056 8.84882 22.3951 8.6843 22.2557 8.54599L21.3077 7.59799H34.3997C34.9558 7.60114 35.4881 7.82341 35.8813 8.21654C36.2744 8.60969 36.4966 9.14201 36.4997 9.69799V38.45C36.4966 39.006 36.2744 39.5382 35.8813 39.9314C35.4881 40.3245 34.9558 40.5468 34.3997 40.55H28.3997C28.0019 40.55 27.6205 40.7081 27.3391 40.9893C27.0578 41.2706 26.8997 41.6522 26.8997 42.05C26.8997 42.4478 27.0578 42.8294 27.3391 43.1106C27.6205 43.3919 28.0019 43.55 28.3997 43.55H34.3997C35.7514 43.5468 37.0468 43.0085 38.0026 42.0527C38.9582 41.097 39.4966 39.8016 39.4997 38.45V9.74599C39.4966 8.39435 38.9582 7.099 38.0026 6.14324C37.0468 5.1875 35.7514 4.64915 34.3997 4.64599Z" fill="#1D1C1D"/>
<path d="M19.832 37.394C19.547 37.1376 19.1745 37.0002 18.7914 37.0098C18.4082 37.0194 18.0432 37.1754 17.7714 37.4457C17.4996 37.716 17.3415 38.0801 17.3298 38.4632C17.318 38.8463 17.4533 39.2195 17.708 39.506L18.752 40.55H5.6C5.04401 40.5468 4.51171 40.3245 4.11856 39.9314C3.72541 39.5382 3.50315 39.0059 3.5 38.45V9.74595C3.50315 9.18996 3.72541 8.65764 4.11856 8.2645C4.51171 7.87135 5.04401 7.6491 5.6 7.64595H11.6C11.9978 7.64595 12.3794 7.48791 12.6606 7.2066C12.9419 6.9253 13.1 6.54377 13.1 6.14594C13.1 5.74812 12.9419 5.36658 12.6606 5.08528C12.3794 4.80397 11.9978 4.64594 11.6 4.64594H5.6C4.24836 4.64912 2.95301 5.18745 1.99725 6.1432C1.0415 7.09894 0.503165 8.39432 0.5 9.74595V38.45C0.503165 39.8016 1.0415 41.0969 1.99725 42.0527C2.95301 43.0085 4.24836 43.5468 5.6 43.55H18.8L17.756 44.594C17.5487 44.8029 17.4075 45.0683 17.3501 45.3569C17.2925 45.6456 17.3213 45.9447 17.4324 46.2173C17.5437 46.4897 17.7327 46.7235 17.9759 46.8893C18.219 47.0552 18.5057 47.1458 18.8 47.15C18.9969 47.1513 19.1921 47.1128 19.3736 47.0364C19.5552 46.9601 19.7193 46.8477 19.856 46.706L23.456 43.106C23.5956 42.9666 23.7065 42.801 23.7821 42.6188C23.8577 42.4365 23.8967 42.2412 23.8967 42.044C23.8967 41.8466 23.8577 41.6513 23.7821 41.469C23.7065 41.2868 23.5956 41.1213 23.456 40.982L19.832 37.394Z" fill="#1D1C1D"/>
<path d="M18.2841 14.0778C17.9099 14.0289 17.5311 14.1264 17.2271 14.35C16.923 14.5736 16.7169 14.906 16.6521 15.2778L16.2561 18.0498H12.7281C12.3462 18.0498 11.9799 18.2015 11.7099 18.4716C11.4398 18.7416 11.2881 19.1079 11.2881 19.4898C11.2881 19.8717 11.4398 20.238 11.7099 20.508C11.9799 20.778 12.3462 20.9298 12.7281 20.9298H15.8361L15.0801 26.0418H11.6001C11.4008 26.0235 11.1998 26.0471 11.01 26.1108C10.8203 26.1746 10.646 26.2772 10.4981 26.4122C10.3503 26.547 10.2321 26.7114 10.1513 26.8946C10.0705 27.0777 10.0288 27.2756 10.0288 27.4758C10.0288 27.6759 10.0705 27.8739 10.1513 28.0571C10.2321 28.2402 10.3503 28.4045 10.4981 28.5395C10.646 28.6743 10.8203 28.7771 11.01 28.8408C11.1998 28.9046 11.4008 28.9281 11.6001 28.9098H14.6241L14.1561 32.4498C14.1041 32.8245 14.2004 33.2048 14.4245 33.5096C14.6486 33.8144 14.9829 34.0197 15.3561 34.0818H15.5721C15.9117 34.0809 16.2401 33.96 16.4993 33.7404C16.7583 33.5208 16.9314 33.2166 16.9881 32.8818L17.6001 28.9098H21.3921L20.8401 32.4498C20.7881 32.8245 20.8844 33.2048 21.1085 33.5096C21.3326 33.8144 21.6669 34.0197 22.0401 34.0818H22.2561C22.5957 34.0809 22.9241 33.96 23.1833 33.7404C23.4423 33.5208 23.6154 33.2166 23.6721 32.8818L24.2481 28.9818H27.2601C27.6177 28.9491 27.9503 28.7838 28.1924 28.5185C28.4346 28.2531 28.5687 27.9069 28.5687 27.5478C28.5687 27.1886 28.4346 26.8424 28.1924 26.5772C27.9503 26.3118 27.6177 26.1465 27.2601 26.1138H24.6801L25.4241 21.0018H28.4001C28.7916 21.0018 29.1669 20.8463 29.4438 20.5695C29.7206 20.2926 29.8761 19.9173 29.8761 19.5258C29.8761 19.1343 29.7206 18.7589 29.4438 18.4821C29.1669 18.2054 28.7916 18.0498 28.4001 18.0498H25.8801L26.2281 15.7098C26.2802 15.3351 26.1839 14.9548 25.9598 14.65C25.7355 14.3452 25.4013 14.1399 25.0281 14.0778C24.6548 14.026 24.276 14.1227 23.973 14.347C23.6702 14.5714 23.4674 14.9056 23.4081 15.2778L22.9401 18.0498H19.1601L19.4961 15.7098C19.551 15.3327 19.4544 14.9493 19.2272 14.6434C19.0001 14.3375 18.6609 14.1342 18.2841 14.0778ZM22.5201 20.9298L21.7761 26.0418H17.9841L18.8001 20.9298H22.5201Z" fill="#1D1C1D"/>
</svg>
