<svg width="40" height="48" viewBox="0 0 40 48" fill="none" xmlns="http://www.w3.org/2000/svg">
<path d="M31.8002 16.0699H18.1802C17.7824 16.0699 17.4008 16.228 17.1195 16.5093C16.8383 16.7907 16.6802 17.1721 16.6802 17.5699C16.6802 17.9677 16.8383 18.3493 17.1195 18.6306C17.4008 18.912 17.7824 19.0699 18.1802 19.0699H31.8002C32.198 19.0699 32.5796 18.912 32.8608 18.6306C33.1422 18.3493 33.3002 17.9677 33.3002 17.5699C33.3002 17.1721 33.1422 16.7907 32.8608 16.5093C32.5796 16.228 32.198 16.0699 31.8002 16.0699Z" fill="#1D1C1D"/>
<path d="M31.8002 21.722H18.1802C17.7824 21.722 17.4008 21.8801 17.1195 22.1614C16.8383 22.4426 16.6802 22.8242 16.6802 23.222C16.6802 23.6198 16.8383 24.0014 17.1195 24.2827C17.4008 24.5639 17.7824 24.722 18.1802 24.722H31.8002C32.198 24.722 32.5796 24.5639 32.8608 24.2827C33.1422 24.0014 33.3002 23.6198 33.3002 23.222C33.3002 22.8242 33.1422 22.4426 32.8608 22.1614C32.5796 21.8801 32.198 21.722 31.8002 21.722Z" fill="#1D1C1D"/>
<path d="M31.7999 27.6499H25.4399C25.042 27.6499 24.6605 27.808 24.3793 28.0893C24.0979 28.3705 23.9399 28.7521 23.9399 29.1499C23.9399 29.5477 24.0979 29.9293 24.3793 30.2106C24.6605 30.4918 25.042 30.6499 25.4399 30.6499H31.7999C32.1977 30.6499 32.5792 30.4918 32.8606 30.2106C33.1418 29.9293 33.2999 29.5477 33.2999 29.1499C33.2999 28.7521 33.1418 28.3705 32.8606 28.0893C32.5792 27.808 32.1977 27.6499 31.7999 27.6499Z" fill="#1D1C1D"/>
<path d="M29.3999 0.950195H15.1559C13.9773 0.953372 12.848 1.42382 12.0156 2.25839C11.1833 3.09296 10.7159 4.22353 10.7159 5.4022V28.5742L5.6519 30.1582C5.06027 30.3413 4.5341 30.6914 4.13662 31.1663C3.73913 31.6412 3.48724 32.2208 3.4112 32.8355C3.33517 33.4501 3.43822 34.0736 3.70798 34.6312C3.97774 35.1886 4.40273 35.6564 4.9319 35.9782L5.1479 36.1102L1.7999 39.0142C1.46813 39.304 1.19971 39.6592 1.01138 40.0574C0.823055 40.4557 0.71888 40.8884 0.705365 41.3288C0.69185 41.7691 0.769295 42.2076 0.93284 42.6166C1.09639 43.0257 1.34254 43.3966 1.6559 43.7062L4.4519 46.5142C4.7641 46.8237 5.13619 47.066 5.54537 47.2265C5.95456 47.387 6.39223 47.4623 6.83153 47.4478C7.27084 47.4331 7.70254 47.329 8.10016 47.1416C8.49778 46.9543 8.85296 46.6876 9.1439 46.3582L12.0479 43.0462L12.1799 43.2622C12.5049 43.7869 12.9734 44.2073 13.53 44.4739C14.0867 44.7404 14.708 44.8418 15.3206 44.7661C15.933 44.6903 16.5108 44.4406 16.9857 44.0464C17.4606 43.6522 17.8127 43.1302 17.9999 42.5422L19.3919 38.0782H34.9919C35.5776 38.083 36.1584 37.9721 36.7011 37.7519C37.2438 37.5319 37.7379 37.2068 38.1548 36.7955C38.5716 36.3841 38.9033 35.8946 39.1307 35.3549C39.3581 34.8151 39.4767 34.2358 39.4799 33.6502V11.2462L29.3999 0.950195ZM30.2639 6.1222L34.4159 10.3582H30.2519L30.2639 6.1222ZM15.1679 41.6542C15.1547 41.6974 15.1274 41.735 15.0905 41.761C15.0536 41.7871 15.009 41.8001 14.9639 41.7982C14.9279 41.8007 14.892 41.7931 14.8601 41.7761C14.8283 41.759 14.8019 41.7335 14.7839 41.7022L12.6719 38.2462C12.6521 38.2166 12.6254 38.1923 12.594 38.1755C12.5625 38.1589 12.5276 38.1502 12.4919 38.1502C12.4622 38.1493 12.4325 38.1553 12.4055 38.1677C12.3783 38.1802 12.3545 38.1989 12.3359 38.2222L6.9239 44.3782C6.90527 44.4014 6.88148 44.42 6.85441 44.4326C6.82733 44.4451 6.79771 44.4511 6.7679 44.4502C6.71356 44.4694 6.65425 44.4694 6.5999 44.4502L3.8039 41.5822C3.76424 41.5399 3.74218 41.4841 3.74218 41.4262C3.74218 41.3683 3.76424 41.3125 3.8039 41.2702L9.9599 35.8702C9.98719 35.8501 10.0094 35.8238 10.0247 35.7937C10.04 35.7634 10.0479 35.7301 10.0479 35.6962C10.0479 35.6623 10.04 35.629 10.0247 35.5987C10.0094 35.5684 9.98719 35.5423 9.9599 35.5222L6.5039 33.4102C6.46436 33.396 6.43016 33.37 6.40598 33.3355C6.38182 33.3011 6.36884 33.2602 6.36884 33.2182C6.36884 33.1762 6.38182 33.1352 6.40598 33.1007C6.43016 33.0664 6.46436 33.0404 6.5039 33.0262L18.6599 29.2222H18.7199C18.7541 29.2199 18.7881 29.2264 18.819 29.2406C18.8501 29.255 18.8769 29.2771 18.8973 29.3045C18.9176 29.332 18.9306 29.3641 18.9353 29.398C18.9399 29.4317 18.936 29.4662 18.9239 29.4982L15.1679 41.6542ZM35.0279 35.0782H20.3639L21.8399 30.3862C21.9906 29.9044 22.0257 29.3941 21.9426 28.8962C21.8594 28.3984 21.6602 27.9271 21.3611 27.5204C21.062 27.1139 20.6714 26.7835 20.2209 26.5558C19.7705 26.3282 19.2726 26.2097 18.7679 26.2102C18.4425 26.21 18.119 26.2586 17.8079 26.3542L13.7159 27.6502V5.4022C13.7159 5.01917 13.8672 4.65166 14.1369 4.37969C14.4066 4.10773 14.7729 3.95336 15.1559 3.9502H27.2519V10.6702C27.255 11.3842 27.5409 12.0679 28.047 12.5716C28.553 13.0754 29.2379 13.3582 29.9519 13.3582H36.4799V33.6502C36.4736 34.031 36.3179 34.3943 36.0462 34.6615C35.7746 34.9285 35.4089 35.0782 35.0279 35.0782Z" fill="#1D1C1D"/>
</svg>
