<svg width="48" height="41" viewBox="0 0 48 41" fill="none" xmlns="http://www.w3.org/2000/svg">
<path d="M42.0001 8.34589H29.9161V5.15389C29.9161 3.80128 29.3788 2.50408 28.4224 1.54764C27.4659 0.591209 26.1687 0.053894 24.8161 0.053894H6.00015C4.64851 0.057059 3.35314 0.595394 2.3974 1.55115C1.44165 2.50689 0.903314 3.80226 0.900146 5.15389V21.0778C0.900146 22.4305 1.43747 23.7277 2.39389 24.6841C3.35034 25.6405 4.64754 26.1778 6.00015 26.1778H7.92015V30.3058C7.91979 30.5923 8.0008 30.873 8.15376 31.1152C8.30673 31.3573 8.52534 31.5511 8.78415 31.6738C9.0462 31.7889 9.33483 31.8295 9.61843 31.7914C9.90204 31.7533 10.1697 31.638 10.3921 31.4578L16.7041 26.1778H18.0841V29.3578C18.0841 30.7137 18.6228 32.0139 19.5815 32.9727C20.5401 33.9313 21.8403 34.4698 23.1961 34.4698H31.2961L37.6081 39.7618C37.8823 39.9865 38.2257 40.1095 38.5802 40.1098C38.8002 40.1095 39.0174 40.0603 39.2162 39.9658C39.4731 39.844 39.6905 39.6522 39.8433 39.4122C39.9962 39.1723 40.0782 38.8942 40.0802 38.6098V34.4698H42.0001C43.3527 34.4698 44.6499 33.9325 45.6065 32.9761C46.5629 32.0197 47.1002 30.7225 47.1002 29.3698V13.4458C47.097 12.0943 46.5586 10.7989 45.6028 9.84315C44.6472 8.88739 43.3518 8.34906 42.0001 8.34589ZM16.1521 23.1778C15.8023 23.1838 15.4646 23.3062 15.1922 23.5258L10.9201 27.1258V24.7258C10.9201 24.328 10.7621 23.9466 10.4808 23.6652C10.1995 23.3839 9.81796 23.2258 9.42015 23.2258H6.00015C5.44318 23.2258 4.90905 23.0046 4.51522 22.6108C4.1214 22.2169 3.90015 21.6828 3.90015 21.1258V5.15389C3.9033 4.5979 4.12555 4.0656 4.5187 3.67245C4.91185 3.2793 5.44416 3.05704 6.00015 3.05389H24.8161C25.3731 3.05389 25.9073 3.27514 26.301 3.66897C26.6949 4.06279 26.9161 4.59693 26.9161 5.15389V21.0658C26.9161 21.3432 26.8616 21.6178 26.7554 21.8742C26.6493 22.1304 26.4936 22.3632 26.2976 22.5592C26.1015 22.7554 25.8685 22.911 25.6123 23.0172C25.3561 23.1232 25.0815 23.1778 24.8042 23.1778H16.1521ZM44.1002 29.3698C44.1002 29.9268 43.8789 30.4609 43.485 30.8548C43.0912 31.2486 42.5571 31.4698 42.0001 31.4698H38.5802C38.1824 31.4698 37.8008 31.6279 37.5195 31.9092C37.2383 32.1906 37.0802 32.572 37.0802 32.9698V35.3698L32.8082 31.7698C32.5409 31.5399 32.2006 31.4124 31.8481 31.4098H23.1961C22.636 31.4098 22.0988 31.1874 21.7028 30.7912C21.3066 30.3952 21.0841 29.8581 21.0841 29.2978V26.1778H24.8161C26.1687 26.1778 27.4659 25.6405 28.4224 24.6841C29.3788 23.7277 29.9161 22.4305 29.9161 21.0778V11.3578H42.0001C42.5562 11.361 43.0884 11.5833 43.4815 11.9764C43.8747 12.3696 44.097 12.9019 44.1002 13.4578V29.3698Z" fill="#1D1C1D"/>
<path d="M9.16803 11.3218C8.854 11.3289 8.54905 11.4285 8.29137 11.6082C8.03368 11.7877 7.83474 12.0394 7.71943 12.3316C7.60414 12.6238 7.57762 12.9435 7.64322 13.2507C7.7088 13.5579 7.86357 13.8388 8.08815 14.0584C8.31271 14.278 8.5971 14.4265 8.90568 14.4853C9.21424 14.544 9.53328 14.5104 9.82282 14.3886C10.1124 14.2668 10.3595 14.0623 10.5334 13.8007C10.7072 13.539 10.8 13.2319 10.8 12.9178C10.8017 12.7047 10.7604 12.4935 10.6786 12.2967C10.5967 12.0999 10.476 11.9217 10.3236 11.7726C10.1712 11.6236 9.99033 11.5069 9.79176 11.4294C9.5932 11.352 9.38106 11.3154 9.16803 11.3218Z" fill="#1D1C1D"/>
<path d="M15.444 11.3218C15.1288 11.3242 14.8215 11.4199 14.5606 11.5966C14.2997 11.7735 14.097 12.0235 13.9781 12.3154C13.8591 12.6072 13.8292 12.9277 13.8921 13.2366C13.9551 13.5453 14.108 13.8286 14.3317 14.0506C14.5554 14.2726 14.8398 14.4234 15.1489 14.484C15.4582 14.5446 15.7785 14.5123 16.0695 14.3913C16.3603 14.2701 16.609 14.0655 16.7838 13.8033C16.9587 13.5411 17.052 13.233 17.052 12.9178C17.052 12.7072 17.0103 12.4987 16.9293 12.3043C16.8484 12.1099 16.7298 11.9334 16.5802 11.785C16.4308 11.6367 16.2534 11.5194 16.0584 11.4399C15.8634 11.3604 15.6546 11.3203 15.444 11.3218Z" fill="#1D1C1D"/>
<path d="M21.7322 14.5138C22.0478 14.5138 22.3565 14.4202 22.6188 14.2449C22.8813 14.0695 23.0859 13.8202 23.2067 13.5286C23.3274 13.237 23.3591 12.916 23.2976 12.6064C23.2359 12.2968 23.084 12.0124 22.8608 11.7892C22.6376 11.566 22.3532 11.4141 22.0436 11.3524C21.734 11.2909 21.413 11.3226 21.1214 11.4433C20.8298 11.5641 20.5805 11.7687 20.4051 12.0312C20.2298 12.2935 20.1362 12.6022 20.1362 12.9178C20.1345 13.1278 20.1747 13.3362 20.2544 13.5304C20.334 13.7248 20.4516 13.9014 20.6001 14.0499C20.7486 14.1984 20.9252 14.316 21.1196 14.3956C21.3138 14.4753 21.5222 14.5155 21.7322 14.5138Z" fill="#1D1C1D"/>
</svg>
